<?xml version="1.0" encoding="UTF-8"?>
<svg id="Layer_1" data-name="Layer 1" xmlns="http://www.w3.org/2000/svg" viewBox="0 0 183.54 38.99">
  <defs>
    <style>
      .ls-1 {
        fill: #161381;
      }

      .ls-1, .ls-2 {
        stroke-width: 0px;
      }

      .ls-2 {
        fill: #f18b2f;
      }
    </style>
  </defs>
  <g>
    <path class="ls-2" d="m21.04,14.67s-2.7,1.08-5.04,1.92c0,0,.39-1.46,1.56-2.09,1.66-.9,3.47.17,3.47.17Z"/>
    <path class="ls-2" d="m19.62,0C8.78,0,0,8.78,0,19.62c0,3.01.68,5.86,1.89,8.41.82-.45,2.23-1.58,3.5-2.69,1.38-1.2,2.6-2.37,2.74-2.63.57-1.04,2.08-4.96,3.58-7.02l-1.99-3.03,4.44-1.47,3.34-3.34,2.27,3.6c1.44.21,1.45.39,1.45.39,0,0,.26-.52.49-1.24.16-.49.17-1.28.62-1.23,1.06.12.89,1.92.74,2.35-.15.42-.11.66.04.66s10.13,3.27,10.51,6.58c0,0-.74,1.17-2.03,1.07-1.25-.1-1.72-.14-3.4-1.62,0,0,.56,2.38,2.46,2.69,1.9.31,2.73-.76,2.73-.76,0,0-.08,7.15-5.99,8.04-3.33.5-5.81-1.21-6.08-1.41.18.17,1.5,1.37,4.05,2.42-.45,0-3.05,2.5-2.93,7.13.02.77.11,1.59.3,2.48,9.35-1.49,16.5-9.6,16.5-19.37C39.24,8.78,30.45,0,19.62,0Zm-5.71,10.6l-7.25,2.36c.04,1.2.07,2.38.11,3.57.28.15.31.41.32.69,0,.65.04,1.3.06,1.95,0,.07,0,.13,0,.22-.38.01-.75.03-1.14.04,0-.08-.02-.15-.02-.22-.02-.68-.04-1.35-.07-2.03-.01-.26.05-.47.28-.63-.03-.93-.06-1.85-.09-2.79h0c0-.21-.01-.41-.02-.62l-2.53.82,7.07-7.9,10.47-2.4-.78.75-6.44,6.2Z"/>
    <path class="ls-2" d="m21.04,14.67s-2.7,1.08-5.04,1.92c0,0,.39-1.46,1.56-2.09,1.66-.9,3.47.17,3.47.17Z"/>
  </g>
  <path class="ls-1" d="m65.52,26.33h0c-.53-.08-1.07.01-1.62.27-.49.25-1,.43-1.53.53-1.52.28-3.09.17-4.4-.29-.83-.28-1.55-.73-2.16-1.32-.61-.59-1.09-1.34-1.44-2.23-.35-.9-.53-1.98-.53-3.22,0-1.05.16-2.02.47-2.88.31-.85.76-1.6,1.35-2.22.59-.62,1.31-1.1,2.15-1.44.85-.34,1.82-.51,2.91-.51.58,0,1.14.06,1.67.18.53.12,1.04.29,1.52.51.53.25,1.06.35,1.58.3.58-.06,1.06-.34,1.4-.81.5-.6.69-1.28.57-2.02-.12-.75-.55-1.33-1.23-1.67-.82-.42-1.71-.75-2.64-.97-.93-.22-1.9-.33-2.87-.33-1.72,0-3.33.3-4.79.88-1.46.59-2.75,1.42-3.83,2.47-1.08,1.06-1.92,2.32-2.51,3.77-.59,1.44-.88,3.03-.88,4.73,0,1.96.33,3.71.97,5.2.64,1.5,1.54,2.77,2.67,3.77,1.12,1,2.41,1.76,3.84,2.27,1.42.51,2.95.76,4.53.76.64,0,1.28-.05,1.9-.15.62-.1,1.24-.24,1.84-.43.61-.19,1.21-.43,1.78-.71.67-.32,1.09-.85,1.24-1.57.15-.71-.04-1.4-.56-2.05-.38-.48-.85-.77-1.42-.85Z"/>
  <path class="ls-1" d="m82.41,13.36c-.69,0-1.27.24-1.73.71-.24.25-.42.54-.54.86-.6-.45-1.31-.83-2.12-1.12-.82-.3-1.73-.44-2.69-.44-1.52,0-2.92.41-4.17,1.21-1.24.8-2.24,1.92-2.97,3.32-.73,1.4-1.1,3.03-1.1,4.85s.37,3.42,1.1,4.82c.73,1.41,1.74,2.52,3,3.33,1.27.8,2.7,1.21,4.26,1.21.87,0,1.69-.15,2.43-.43.73-.28,1.38-.63,1.93-1.04.13-.1.25-.2.37-.3.11.27.28.52.49.74.46.47,1.04.71,1.73.71s1.27-.24,1.73-.71c.45-.47.68-1.05.68-1.73v-13.55c0-.71-.23-1.3-.69-1.75-.46-.46-1.04-.69-1.72-.69Zm-2.25,9.39c0,.92-.18,1.77-.54,2.51-.35.73-.85,1.31-1.48,1.73-.62.41-1.36.62-2.2.62s-1.54-.2-2.16-.62c-.63-.42-1.13-1-1.48-1.73-.36-.74-.54-1.58-.54-2.51s.18-1.8.54-2.54c.35-.73.85-1.31,1.48-1.73.63-.42,1.34-.62,2.16-.62s1.58.21,2.2.62c.63.42,1.13,1,1.48,1.73.36.74.54,1.6.54,2.54Z"/>
  <path class="ls-1" d="m99.91,14.57c-1.26-.81-2.7-1.21-4.28-1.21-.8,0-1.58.14-2.3.42-.71.27-1.35.62-1.9,1.05-.17.13-.34.27-.49.41-.11-.31-.29-.59-.53-.84-.46-.47-1.04-.71-1.73-.71s-1.27.24-1.73.71c-.45.47-.68,1.05-.68,1.73v19.63c0,.71.23,1.3.69,1.75.46.46,1.03.69,1.72.69s1.27-.24,1.73-.71c.45-.47.68-1.05.68-1.73v-5.22s0,0,0,0c.6.45,1.31.83,2.09,1.12.8.3,1.66.45,2.57.45,1.54,0,2.95-.41,4.19-1.22,1.23-.8,2.22-1.92,2.95-3.32.73-1.4,1.1-3.03,1.1-4.85s-.37-3.45-1.1-4.84c-.73-1.39-1.74-2.51-2.99-3.31Zm-.57,8.14c0,.93-.18,1.78-.54,2.53-.36.74-.85,1.33-1.47,1.75-.61.41-1.34.62-2.18.62s-1.57-.2-2.2-.62c-.63-.42-1.13-1.01-1.48-1.74-.36-.75-.54-1.6-.54-2.53s.18-1.79.54-2.52c.35-.72.85-1.3,1.48-1.72.63-.42,1.35-.62,2.2-.62s1.57.21,2.18.62c.62.42,1.11,1,1.47,1.72.36.73.54,1.58.54,2.52Z"/>
  <path class="ls-1" d="m107.27,7.78c-.79,0-1.38.14-1.79.42-.47.32-.71.88-.71,1.67v.61c0,.75.21,1.3.63,1.63.39.31.99.46,1.84.46s1.44-.14,1.85-.42c.46-.32.69-.88.69-1.66v-.61c0-.75-.21-1.3-.63-1.63-.39-.31-1-.46-1.87-.46Z"/>
  <path class="ls-1" d="m107.27,31.78c.69,0,1.27-.24,1.73-.71.45-.47.68-1.05.68-1.73v-13.23c0-.68-.23-1.27-.68-1.73-.46-.47-1.04-.71-1.73-.71s-1.27.24-1.73.71c-.45.47-.68,1.05-.68,1.73v13.23c0,.68.23,1.27.68,1.73.46.47,1.04.71,1.73.71Z"/>
  <path class="ls-2" d="m125.85,14.57c-1.26-.81-2.7-1.21-4.28-1.21-.8,0-1.58.14-2.3.42-.71.27-1.35.62-1.9,1.05-.12.09-.23.18-.34.27v-5.54c0-.68-.23-1.27-.68-1.73-.46-.47-1.04-.71-1.72-.71s-1.27.24-1.73.71c-.45.47-.68,1.05-.68,1.73v20.11c0,.71.23,1.3.69,1.75.46.46,1.03.69,1.72.69s1.27-.24,1.73-.71c.27-.28.46-.6.57-.95.04.03.08.06.12.09.6.45,1.31.83,2.09,1.12.8.3,1.66.45,2.57.45,1.54,0,2.95-.41,4.19-1.22,1.23-.8,2.22-1.92,2.95-3.32.73-1.4,1.1-3.03,1.1-4.85s-.37-3.45-1.1-4.84c-.73-1.39-1.74-2.51-2.99-3.31Zm-.57,8.14c0,.93-.18,1.78-.54,2.53-.36.74-.85,1.33-1.47,1.75-.61.41-1.34.62-2.18.62s-1.57-.2-2.2-.62c-.63-.42-1.13-1.01-1.48-1.74-.36-.75-.54-1.6-.54-2.53s.18-1.79.54-2.52c.35-.72.85-1.3,1.48-1.72.63-.42,1.35-.62,2.2-.62s1.57.21,2.18.62c.62.42,1.11,1,1.47,1.72.36.73.54,1.58.54,2.52Z"/>
  <path class="ls-2" d="m134.09,31.78c.69,0,1.27-.24,1.73-.71.45-.47.68-1.05.68-1.73v-13.23c0-.68-.23-1.27-.68-1.73-.46-.47-1.04-.71-1.73-.71s-1.27.24-1.73.71c-.45.47-.68,1.05-.68,1.73v13.23c0,.68.23,1.27.68,1.73.46.47,1.04.71,1.73.71Z"/>
  <path class="ls-2" d="m134.09,7.78c-.79,0-1.38.14-1.79.42-.47.32-.71.88-.71,1.67v.61c0,.75.21,1.3.63,1.63.39.31.99.46,1.84.46s1.44-.14,1.85-.42c.46-.32.69-.88.69-1.66v-.61c0-.75-.21-1.3-.63-1.63-.39-.31-1-.46-1.87-.46Z"/>
  <path class="ls-2" d="m142.22,7.11c-.69,0-1.27.24-1.74.7-.47.47-.7,1.05-.7,1.74v19.79c0,.68.23,1.27.68,1.73.46.47,1.03.71,1.69.71s1.27-.24,1.74-.7.7-1.05.7-1.74V9.55c0-.68-.22-1.26-.66-1.73-.45-.47-1.02-.71-1.71-.71Z"/>
  <path class="ls-2" d="m150.29,31.78c.69,0,1.27-.24,1.73-.71.45-.47.68-1.05.68-1.73v-13.23c0-.68-.23-1.27-.68-1.73-.46-.47-1.04-.71-1.73-.71s-1.27.24-1.73.71c-.45.47-.68,1.05-.68,1.73v13.23c0,.68.23,1.27.68,1.73.46.47,1.04.71,1.73.71Z"/>
  <path class="ls-2" d="m150.29,7.78c-.79,0-1.38.14-1.79.42-.47.32-.71.88-.71,1.67v.61c0,.75.21,1.3.63,1.63.39.31.99.46,1.84.46s1.44-.14,1.85-.42c.46-.32.69-.88.69-1.66v-.61c0-.75-.21-1.3-.63-1.63-.39-.31-1-.46-1.87-.46Z"/>
  <path class="ls-2" d="m163.93,14h-1.79v-1.56c0-.68-.22-1.26-.66-1.73-.45-.47-1.02-.71-1.71-.71s-1.27.24-1.74.7c-.47.47-.7,1.05-.7,1.74v1.56h-.99c-.64,0-1.19.21-1.62.63-.44.42-.66.96-.66,1.58s.22,1.19.65,1.62c.43.43.98.65,1.62.65h.99v8.35c0,1.14.18,2.02.54,2.7.36.67.82,1.18,1.38,1.52.54.32,1.11.53,1.72.61.56.08,1.08.12,1.56.12.83,0,1.62-.22,2.34-.64,1-.59,1.22-1.36,1.22-1.89,0-.61-.16-1.11-.49-1.47-.34-.39-.74-.58-1.18-.58-.34,0-.66.06-.94.19-.29.13-.67.14-.97.01-.11-.05-.19-.12-.25-.22-.07-.11-.1-.28-.1-.48v-8.19h1.79c.64,0,1.19-.21,1.62-.63.44-.43.66-.96.66-1.58s-.22-1.19-.66-1.62c-.44-.43-.98-.65-1.62-.65Z"/>
  <path class="ls-2" d="m177.09,33.33c-.59.24-1.35.36-2.27.36-.66,0-1.25-.1-1.74-.3-.58-.23-1.03-.4-1.36-.5-.6-.22-1.18-.18-1.74.11-.54.29-.94.81-1.17,1.55-.19.6-.13,1.18.19,1.72.3.5.82.92,1.55,1.24.53.23,1.21.4,2.02.52.79.11,1.54.16,2.24.16,1.59,0,3.06-.27,4.35-.81,1.33-.55,2.4-1.46,3.19-2.7h0c.78-1.24,1.18-2.9,1.18-4.95v-13.61c0-.68-.23-1.27-.68-1.73-.46-.47-1.04-.71-1.73-.71s-1.27.24-1.73.71c-.45.47-.68,1.05-.68,1.73v8.2c0,.73-.12,1.36-.37,1.85-.24.48-.56.83-.99,1.07-.44.25-.99.37-1.65.37-.96,0-1.7-.24-2.22-.72-.5-.47-.76-1.33-.76-2.57v-8.2c0-.68-.23-1.27-.68-1.73-.46-.47-1.04-.71-1.73-.71s-1.27.24-1.73.71c-.45.47-.68,1.05-.68,1.73v9.35c0,1.27.25,2.41.76,3.41.51,1.01,1.23,1.8,2.15,2.37.92.57,2,.86,3.22.86,1,0,1.92-.13,2.71-.37.74-.23,1.4-.57,1.95-1.01-.06.6-.2,1.1-.4,1.49-.28.53-.68.9-1.23,1.12Z"/>
</svg>