<?xml version="1.0" encoding="UTF-8"?>
<svg id="Layer_1" data-name="Layer 1" xmlns="http://www.w3.org/2000/svg" viewBox="0 0 611.97 685.43">
  <defs>
    <style>
      .cls-1 {
        fill: #fff;
      }

      .cls-1, .cls-2 {
        stroke-width: 0px;
      }

      .cls-2 {
        fill: #f18b2f;
      }
    </style>
  </defs>
  <g>
    <path class="cls-1" d="m430.5,646.59s-44.03,15.94-48.95,18.15c-4.92,2.21-11.09,11.58-2.58,17.59,8.54,5.98,60.03,1.47,60.03,1.47l50.55-2.39c-42.95-10.26-59.04-34.82-59.04-34.82Z"/>
    <path class="cls-1" d="m550.2,327.91c-31.81-47.6-69.38-86.49-123.65-108.08-24.63-9.8-49.13-18.73-73.26-30.05-13.29-6.24-37.59-14.36-45.14-28.31-9.2-17.01-39.09-97.05-61.63-100.27,0,0,22.08-8.72,23.9-24.82,1.87-16.1-.9-31.76-6.89-28.53-5.96,3.23-32.66,39.55-31.71,40.94,0,0-7.84-27.14-44.63-23.91-36.78,3.24-37.24,5.04-37.24,5.04,0,0-3.1-6.36-5.92-15.01-1.93-5.96-2.18-15.43-7.42-14.87-12.86,1.39-10.9,23.28-9.04,28.34,1.82,5.04,1.34,7.98-.5,7.98S4.61,75.93,0,115.94c0,0,8.87,14.19,24.44,12.94,15.17-1.21,20.86-1.64,41.14-19.49,0,0-6.78,28.81-29.76,32.51-23.03,3.68-33.03-9.23-33.03-9.23,0,0,.92,86.49,72.38,97.25,42.76,6.42,84.67-24.58,88.8-43.9,0,0,8.17,44.06-62.29,58.31,6.12-.4,24.89,5.48,32.15,89.62,8.73,101.18,41.73,177.88,41.73,177.88,0,0,37.08,107.04,54.14,141.02,1.65,3.29,13.85,23.29,25.81,21.4,11.96-1.89,5.48-55.69,5.04-60.44-.58-6.19-3.99-66.7-2.65-66.76,6.65-.23,40.49,139.02,66.15,134.3,18.56-3.41,20.62-42.98,22.49-56.74,1.56-11.4,2.2-23.11,4.5-34.39.66-3.24.63-10.09,5.06-9.44,6.32.93,2.45,23.38,2.29,27.81-.55,14.53.22,31.78,12.42,39.7,6.79,4.41,15.53,4.56,23.51,3.16,11.01-1.94,21.53-6.59,30.38-13.42-38.64-38.71-67.54-112-39.22-163.86,12.77-23.39,35.95-38.91,58.25-53.5-27.27,22.56-60.6,55.77-62.91,93.12-2.37,38.21,18.06,78.87,39.96,109.12,20.2,27.89,49.48,53.1,85.73,53.1,65.45,0,100.8-55.27,104.61-114.34,5.35-82.86-14.68-164.57-60.92-233.76ZM152,64.29s21.95-12.97,42.06-2.15c14.16,7.62,18.93,25.32,18.93,25.32-28.34-10.12-60.99-23.17-60.99-23.17Z"/>
  </g>
  <path class="cls-2" d="m101.69,244.33c-.67.14-1.29.29-1.98.42,0,0,.73-.33,1.98-.42Z"/>
</svg>