<svg width="720" height="874" viewBox="0 0 720 874" fill="none" xmlns="http://www.w3.org/2000/svg">
<path d="M78.1279 527.366C113.541 492.599 153.578 463.862 193.56 434.961C223.642 413.232 253.887 391.611 278.638 363.526C289.028 351.737 288.811 341.742 279.345 329.41C273.96 322.402 266.344 320.175 258.565 317.568C219.453 304.638 179.961 292.416 145.472 268.839C128.119 256.996 128.446 250.912 147.104 244.176C157.766 240.373 164.947 231.953 166.688 220.056C167.068 217.34 167.231 214.461 164.838 212.56C161.737 210.115 158.909 211.69 156.243 213.7C154.067 215.33 151.946 217.014 149.715 218.589C126.651 235.104 114.738 231.519 104.674 205.008C103.532 202.075 102.716 198.979 102.117 195.882C92.6521 146.991 98.3638 99.0226 116.043 53.2276C132.308 11.181 154.992 -1.58515 200.414 0.153215C238.329 1.61996 273.797 14.6034 310.57 22.263C321.068 24.436 331.839 25.5768 342.175 28.6189C352.51 31.6611 362.574 35.9526 373.182 38.3972C383.789 40.8418 394.669 42.2542 405.113 45.405C416.591 48.8817 427.688 53.6079 439.221 57.1389C450.753 60.67 463.264 64.2554 474.742 69.3075C489.919 75.935 506.456 73.5448 520.056 64.527C521.144 63.8208 522.177 63.0602 523.211 62.2997C534.308 54.0968 547.907 48.6101 562.595 49.3163C573.855 49.8595 582.776 54.64 586.639 65.8851C590.664 77.619 582.559 81.5847 573.909 85.9849C564.825 90.6024 564.825 97.8818 571.951 104.618C575.161 107.66 579.186 110.05 583.157 112.115C644.681 144.057 685.479 193.492 705.552 259.387C738.245 366.785 723.83 472.499 690.81 576.964C674.11 629.875 647.618 678.441 619.223 725.92C593.221 769.325 579.567 815.935 581.688 866.782C581.852 870.802 581.09 874.876 580.274 878.842C579.621 881.992 578.044 884.872 574.345 885.469C570.482 886.067 568.687 883.35 567.055 880.526C562.976 873.355 560.636 865.587 558.787 857.655C548.288 812.349 544.317 766.554 549.267 720.162C549.702 715.87 551.552 709.949 546.711 707.776C541.543 705.44 538.714 711.09 536.593 714.675C520.817 741.239 507.109 768.401 502.648 799.746C499.384 822.834 498.569 845.65 500.962 868.737C501.506 873.952 503.138 880.96 497.263 883.459C491.007 886.121 488.015 879.276 484.86 875.256C474.688 862.381 467.671 847.66 460.49 833.047C442.974 797.356 433.835 757.917 411.423 724.345C378.621 675.181 336.463 637.535 280.161 617.327C273.47 614.936 262.754 609.178 259.49 617.544C256.281 625.855 268.248 628.409 274.613 631.505C311.603 649.486 342.936 674.367 367.035 707.558C403.753 758.08 405.657 809.416 341.522 843.151C339.129 844.4 336.844 845.976 334.722 847.66C332.601 849.398 330.588 851.517 332.057 854.613C333.199 857.003 335.701 857.221 337.932 857.058C346.527 856.515 355.122 856.134 363.662 855.102C378.513 853.255 393.418 851.299 408.377 852.277C420.562 853.092 433.019 854.396 441.505 865.098C445.313 869.878 447.761 875.582 445.639 881.558C443.3 888.131 436.827 886.936 431.55 886.882C315.955 886.773 200.36 886.556 84.8188 886.338C71.6545 886.338 59.959 882.101 49.6234 873.898C35.3168 862.49 26.9396 847.117 20.0854 830.656C9.58667 805.287 5.6156 778.505 2.40613 751.452C-7.98383 664.697 14.9176 589.567 78.0735 527.529L78.1279 527.366ZM193.669 26.0657C189.752 18.0801 182.245 18.2974 174.847 18.5147C150.858 19.2752 129.697 37.4737 129.969 57.0303C130.023 61.1589 130.132 65.7221 134.81 67.2432C139.652 68.8186 142.644 65.3962 144.221 61.4849C149.661 47.6323 160.323 47.415 172.236 50.5114C179.036 52.2498 185.781 54.0968 190.351 46.6001C194.158 40.2985 197.313 33.6167 193.669 26.1743V26.0657ZM345.819 84.1379C361.268 82.8885 372.42 87.6146 377.588 103.369C380.471 112.278 387.325 116.732 396.736 112.441C406.038 108.203 404.624 100.163 401.686 92.6667C392.874 69.9594 365.892 57.1389 344.024 65.5048C337.497 68.0037 327.868 70.4483 329.011 78.7598C330.316 88.2122 339.999 82.9428 345.765 84.1379H345.819Z" fill="white"/>
</svg>
