<svg xmlns="http://www.w3.org/2000/svg" width="607" height="946" viewBox="0 0 607 946" fill="none">
<path d="M378.435 54.6717C359.187 63.6475 355.083 80.297 353.851 97.5976C351.297 133.222 334.832 158.056 301.947 171.218C293.737 174.52 293.327 178.985 298.663 186.193C318.503 213.074 318.184 212.749 349.792 204.982C379.256 197.727 408.355 188.007 439.005 186.798C477.089 185.31 496.154 196.239 509.746 232.235C524.569 271.44 529.358 312.459 521.422 354.362C520.921 357.013 520.236 359.664 519.279 362.175C510.841 384.871 500.852 387.893 481.513 373.802C479.643 372.453 477.865 371.011 476.04 369.616C473.805 367.896 471.434 366.593 468.834 368.64C466.827 370.267 466.918 372.732 467.283 375.058C468.743 385.243 474.809 392.451 483.703 395.707C499.347 401.473 499.621 406.682 485.071 416.821C456.154 437.005 423.041 447.469 390.248 458.537C383.726 460.723 377.34 462.677 372.825 468.676C364.889 479.233 364.706 487.79 373.418 497.882C394.17 521.926 419.529 540.436 444.752 559.039C478.275 583.78 511.844 608.429 541.536 638.147C594.535 691.258 613.691 755.577 604.98 829.848C602.243 853.009 598.959 875.937 590.156 897.655C584.455 911.747 577.431 924.908 565.39 934.675C556.724 941.697 546.964 945.278 535.881 945.325C438.959 945.511 342.038 945.697 245.162 945.79C240.738 945.79 235.311 946.813 233.349 941.232C231.571 936.116 233.623 931.28 236.816 927.141C243.931 917.979 254.376 916.863 264.592 916.165C277.135 915.281 289.632 916.956 302.084 918.583C309.245 919.513 316.451 919.839 323.657 920.258C325.527 920.397 327.625 920.258 328.583 918.165C329.815 915.514 328.127 913.7 326.348 912.212C324.569 910.77 322.654 909.422 320.647 908.352C266.873 879.471 268.515 835.476 299.256 792.271C319.461 763.855 345.732 742.555 376.747 727.161C382.084 724.51 392.118 722.324 389.427 715.209C386.69 708.047 377.751 712.93 372.095 715.023C324.889 732.37 289.541 764.553 262.038 806.641C243.247 835.383 235.584 869.147 220.898 899.702C214.877 912.212 208.994 924.862 200.465 935.837C197.774 939.279 195.311 945.139 190.066 942.86C185.14 940.721 186.508 934.721 186.964 930.257C188.971 910.491 188.287 890.958 185.55 871.193C181.81 844.358 170.316 821.105 157.09 798.363C155.311 795.294 152.939 790.503 148.606 792.457C144.547 794.317 146.098 799.386 146.462 803.06C150.613 842.777 147.283 881.982 138.481 920.769C136.93 927.559 134.969 934.256 131.548 940.349C130.18 942.767 128.674 945.092 125.436 944.581C122.335 944.116 121.012 941.604 120.465 938.907C119.781 935.512 119.142 932.024 119.279 928.582C121.058 885.052 109.564 845.149 87.8079 807.99C63.9995 767.343 41.833 725.812 27.7851 680.468C0.145472 591.175 -11.9412 500.673 15.4704 408.682C32.3005 352.316 66.4624 309.994 118.002 282.648C121.331 280.881 124.706 278.835 127.397 276.23C133.372 270.417 133.327 264.232 125.755 260.279C118.503 256.512 111.708 253.117 115.083 243.071C118.321 233.444 125.847 229.352 135.242 228.886C147.557 228.235 158.96 232.979 168.264 240.002C182.722 250.884 196.405 252.047 212.46 244.513C223.406 239.351 235.402 236.235 247.124 233.072C256.2 230.607 257.888 225.864 256.018 216.841C249.313 184.426 249.587 184.379 217.979 178.706C213.874 177.961 209.723 177.217 205.71 176.148C199.826 174.613 196.405 176.892 194.307 182.566C184.547 208.842 182.814 214.795 147.831 203.075C133.783 198.378 133.555 197.866 143.315 186.007C188.241 131.455 232.483 76.3439 279.279 23.4191C285.117 16.8151 291.365 10.5832 299.347 6.44408C324.797 -6.67086 347.922 2.90956 357.409 30.5811C360.936 40.8747 367.929 48.9204 378.389 54.7182L378.435 54.6717ZM317.089 258.651C321.924 257.628 330.043 262.185 331.137 254.047C332.095 246.931 324.022 244.792 318.549 242.699C300.214 235.537 277.637 246.513 270.202 265.952C267.739 272.37 266.554 279.253 274.353 282.881C282.243 286.508 287.99 282.695 290.408 275.114C294.741 261.627 304.091 257.581 317.044 258.651H317.089ZM498.07 235.444C498.298 218.701 480.51 203.122 460.442 202.471C454.284 202.285 447.945 202.098 444.661 208.935C441.605 215.306 444.25 221.027 447.443 226.422C451.274 232.84 456.93 231.305 462.631 229.77C472.62 227.119 481.559 227.352 486.12 239.164C487.443 242.559 489.951 245.443 494.011 244.094C497.979 242.792 498.024 238.932 498.07 235.351V235.444ZM271.571 180.008C263.498 180.147 259.21 183.728 261.901 193.076C264.136 200.843 266.189 208.656 268.332 216.423C269.701 221.399 272.528 225.305 278.002 223.492C286.394 220.748 296.474 221.957 302.449 213.632C303.224 212.563 301.856 209.121 300.579 207.4C294.923 199.727 288.948 192.239 283.019 184.751C280.237 181.263 276.497 179.589 271.525 180.008H271.571ZM336.747 32.767C336.519 24.3027 332.186 21.0007 325.892 20.9542C318.686 20.8612 314.855 25.1863 315.219 32.6275C315.539 39.743 320.282 42.9055 326.485 42.6729C332.87 42.4404 336.611 38.3478 336.747 32.767Z" fill="#4364F7"/>
</svg>